PathFileType	4	(X/Y/Z)	Patient4_TMGait_0pt5_02_right_28.trc.trc
DataRate	CameraRate	NumFrames	NumMarkers	Units	OrigDataRate	OrigDataStartFrame	OrigNumFrames
76.923076923077	76.923076923077	4	33	mm	76.923076923077	36	       141
Frame#	Time	Sacral			L.Shoulder			Chest			R.Shoulder			Neck			R.ASIS			L.ASIS			R.Thigh.Superior			R.Thigh.Lateral			R.Thigh.Inferior			R.Patella			L.Thigh.Superior			L.Thigh.Lateral			L.Thigh.Inferior			L.Patella			L.Shank.Superior			L.Shank.Lateral			L.Shank.Inferior			R.Shank.Superior			R.Shank.Lateral			R.Shank.Inferior			R.Heel			R.Midfoot.Superior			R.Midfoot.Lateral			R.Toe			L.Heel			L.Midfoot.Lateral			L.Midfoot.Superior			L.Toe			L.Elbow			L.Wrist			R.Elbow			R.Wrist			
		X1	Y1	Z1	X2	Y2	Z2	X3	Y3	Z3	X4	Y4	Z4	X5	Y5	Z5	X6	Y6	Z6	X7	Y7	Z7	X8	Y8	Z8	X9	Y9	Z9	X10	Y10	Z10	X11	Y11	Z11	X12	Y12	Z12	X13	Y13	Z13	X14	Y14	Z14	X15	Y15	Z15	X16	Y16	Z16	X17	Y17	Z17	X18	Y18	Z18	X19	Y19	Z19	X20	Y20	Z20	X21	Y21	Z21	X22	Y22	Z22	X23	Y23	Z23	X24	Y24	Z24	X25	Y25	Z25	X26	Y26	Z26	X27	Y27	Z27	X28	Y28	Z28	X29	Y29	Z29	X30	Y30	Z30	X31	Y31	Z31	X32	Y32	Z32	X33	Y33	Z33	

36	36.995000000000	698.358265373494	1002.728370129654	478.674728362739	870.066026403064	1427.553342703752	293.359379734041	968.872843916373	1362.900657059854	459.496476215431	878.562532993180	1440.594491241505	629.044686918647	866.379038029329	1492.736183412989	442.777892553966	923.466897190740	938.746078930693	599.261599063135	914.537368252128	961.769061692370	324.268497851854	986.114691992672	749.406692928616	568.662133583260	916.574835873828	634.051124257321	629.016992045963	1000.591940270846	589.188879483851	549.844860147672	1012.214983017795	499.733620515302	557.638021458949	935.853618404629	737.169243235744	346.109705656914	831.474365117925	632.680211973732	284.831128725851	907.332119021335	541.059464493552	341.234721558148	895.535001324805	460.219489797250	341.339290582945	836.547832825171	401.045042424267	337.431239050482	705.124580336509	334.490505179939	289.203538778711	711.221483978032	207.491210620839	351.998401195702	988.433466997752	410.104346728638	567.434285429892	922.945717479115	303.631561630920	630.367440316179	972.241189604304	210.142148382700	571.054411236131	848.737136372039	42.761124504346	541.311147433786	1017.592121713821	98.853209666715	581.187294326214	930.151072777590	37.058447291106	618.705696973579	1137.835381065466	48.040082347034	612.972495618370	535.377235632770	100.945204076488	392.576405227749	604.690074653846	68.124070733234	316.529920848655	701.765591037502	106.358267098459	338.235916253297	807.260548664448	35.263870173159	320.418588701795	862.617997166852	1074.060102594471	172.100331993099	1044.438369112899	884.946410873288	160.683394637734	795.035903415416	1109.699922489021	754.974052249316	881.817263341887	863.033348998445	753.941012373078	
37	37.008000000000	698.718526772288	1003.276398750864	482.360952271659	869.306231793080	1428.442168027692	296.703644383215	969.229292796645	1363.491048109112	462.070395814624	880.121501966287	1440.827834394169	632.328435286328	866.631157161658	1493.325942881014	446.323831113004	924.459246928290	939.362440533009	601.679530701993	913.975292950294	962.209807737572	326.935183366893	985.351793449189	748.566340702531	571.682481270485	914.481340841967	634.044776407657	631.288817945853	997.957531214740	588.564486908720	551.971346206674	1008.580100897380	499.091784053174	559.179112035513	940.418478746810	738.977020918857	348.473342526469	840.132618544000	632.048833099808	286.457058632770	918.921798183272	541.861274415622	342.554232786883	908.010815843797	459.629414240366	341.700387363935	846.639715981685	400.759533402078	337.998906179040	712.861362483378	339.242185145281	289.693646846802	714.438221571864	211.952857419025	351.646831352586	984.368968939520	409.565921718416	568.756456910277	918.471275119778	303.311078866003	631.535103141593	966.820488998938	209.706574580175	571.602344023991	842.290483250446	42.738494830295	541.476052448858	1011.258689203640	98.761211586454	581.384344683902	923.696332900816	36.995341606036	618.887373525333	1131.470760578903	47.695003771719	613.105903012335	534.687985679280	114.281926347624	391.892815303824	601.823212277198	77.003873749259	316.099288284363	700.741766373039	109.763585873324	337.364293282294	800.947495001714	34.273717449436	320.314472471507	857.856482282734	1074.715455007575	176.263984156971	1029.581631421361	876.236336758715	163.018134807941	803.106686458440	1108.488213401355	759.566291880322	902.103287429345	866.628337888074	756.866100891542	
38	37.021000000000	698.858051935861	1003.686843327200	485.961711657438	868.374178404963	1429.064071931238	299.888716762594	969.489075938383	1363.854459403364	464.452749553696	881.678691463804	1440.885783419791	635.448470619682	866.794019230462	1493.709990194422	449.691948776736	925.267823339438	939.788798363032	603.984432113471	913.213520702061	962.396217482296	329.515071693767	984.405158839897	747.640590363563	574.600443816861	912.302740187928	633.962324614408	633.552442820309	995.208982687383	587.889354511017	554.057723482110	1004.854770874020	498.414431664373	560.746143035506	945.090770875572	740.963839709465	350.906273570270	849.329491503591	631.540939714604	288.047861808632	930.958242273436	543.036252323820	344.108206409544	921.080186351906	459.450387169626	342.440356266881	857.490035241073	400.782965169120	338.761373572374	721.604084001891	344.383955923936	290.211578083342	718.529914069939	217.030815495633	351.427569590692	980.219445880246	408.972012696009	570.102475437234	913.902927550966	302.920571125495	632.687863844371	961.345585864392	209.224971846391	572.168911994281	835.780420862719	42.704084795162	541.644890634839	1004.881060902220	98.594162764319	581.607726696794	917.170799939816	36.904089725769	619.079409580979	1125.041314726336	47.277661733085	613.256255476759	535.141887422085	128.870394024887	391.175634641431	599.840678067501	87.154371935287	315.636428524782	700.413511890451	113.942350641034	336.653546384005	794.852643941181	33.197790388613	320.238863782451	853.144515041745	1075.136570647303	180.306445013089	1014.189024797079	867.836347245986	165.553796641691	811.382301737327	1107.333475831772	764.228248443473	922.620128116370	871.016136362459	759.648771174389	
39	37.034000000000	698.763384115461	1003.978875368648	489.439565338499	867.299063179746	1429.448968249707	302.888044864718	969.653394269099	1363.995007277297	466.620163047669	883.231428584215	1440.782563782730	638.377205919660	866.897695733783	1493.911777619420	452.852660655111	925.880487746275	940.057533474593	606.178730042620	912.248025606627	962.343991873481	331.979830559551	983.322449150850	746.705880769867	577.333413470669	910.127616343051	633.834411329718	635.764014068686	992.426421335093	587.199030982410	556.053306807957	1001.115145332939	497.721063275605	562.298896688749	949.752327383399	743.181855236762	353.435170062908	858.873724605255	631.277802020090	289.628130783096	943.186135844835	544.685997907587	345.926518452260	934.513466850400	459.797018554978	343.577925672664	868.902797375856	401.213688486813	339.735457756466	731.175073551451	349.894697793406	290.797040089003	723.443099088278	222.669943732052	351.371654883399	976.049830290385	408.345319372542	571.438206822549	909.301298973383	302.495173609631	633.812050006030	955.856973752806	208.720550410083	572.735558950286	829.232532931976	42.669883319440	541.821105192861	998.475226472404	98.385354295785	581.843618449533	910.603568260634	36.802049414653	619.279785936114	1118.569236016908	46.828257440932	613.420413542313	536.781291208316	144.349266640796	390.439858455162	598.892175228335	98.347153409281	315.161271883339	700.864231957611	118.880372435864	336.146656733934	789.225932852532	32.117395953324	320.237906344558	848.435434504659	1075.335293739547	184.236353970345	998.329734467388	859.866262980531	168.316425197633	819.906156692866	1106.244986510555	768.901372044439	943.273996547940	876.213830676159	762.224750355395	
